<svg width="608" height="608" viewBox="0 0 608 608" fill="none" xmlns="http://www.w3.org/2000/svg">
<path d="M608 304C608 471.895 471.895 608 304 608C136.105 608 0 471.895 0 304C0 136.105 136.105 0 304 0C471.895 0 608 136.105 608 304Z" fill="#F4EAE2"/>
<path d="M337 49C337 67.2254 322.225 82 304 82C285.775 82 271 67.2254 271 49C271 30.7746 285.775 16 304 16C322.225 16 337 30.7746 337 49Z" fill="black"/>
<path d="M82 304C82 322.225 67.2254 337 49 337C30.7746 337 16 322.225 16 304C16 285.775 30.7746 271 49 271C67.2254 271 82 285.775 82 304Z" fill="black"/>
<path d="M115 182C115 200.225 100.225 215 82 215C63.7746 215 49 200.225 49 182C49 163.775 63.7746 149 82 149C100.225 149 115 163.775 115 182Z" fill="black"/>
<path d="M201 89C201 107.225 186.225 122 168 122C149.775 122 135 107.225 135 89C135 70.7746 149.775 56 168 56C186.225 56 201 70.7746 201 89Z" fill="black"/>
</svg>
